<?xml version="1.0" encoding="UTF-8"?>
<svg id="Layer_1" xmlns="http://www.w3.org/2000/svg" viewBox="0 0 394.35 385.81">
  <path d="M26.6,68.6c0-17.48,14.16-31.63,31.63-31.63s31.62,14.15,31.62,31.63-14.18,31.62-31.62,31.62-31.63-14.18-31.63-31.62ZM92.95,340.4H0v-56.59h92.95v56.59ZM86.41,290.33H6.55v43.5h79.86v-43.5ZM394.35,370.26l-2.86-3.78c-.43.33-5.14,3.83-11.78,6.05L301.42,9.85l1.34-9.1c-48.27-7.15-106.63,38.35-144.13,74.08-3.99-1.18-8.53-.61-12.45,2.95-22.49,20.18-47.91,34.7-76.4,43.53-10.32-23.92-53.39-19.9-53.39,11.72v104.32c0,1.31.09,2.59.24,3.77-.15.79-.24,1.64-.3,2.5-1.01,14.39,9.87,26.91,24.29,27.91l62.5,4.35c.06,15.86.91,32.57,2.68,51.96.85,9.34,8.67,16.38,17.9,16.38.51,0,1.09-.03,1.64-.09,9.89-.88,17.2-9.65,16.28-19.54-2.43-26.57-3.04-47.7-2.13-68.43.09-2.16-.24-4.2-.85-6.15-.12-13.52-10.63-24.87-24.33-25.82l-42.31-2.95v-73.39c34.79-9.83,65.66-27.33,92.68-51.59,5.3-4.78,5.03-10.8,2.04-15.34C200.85,48.5,252.26,8.11,294.87,9.85l78.63,364.21c-7.09,1.07-15.28-.09-22.52-7.37-20-20-49.29-.48-49.56-.27l1.31,1.92-1.43-1.85c-.94.73-23.35,17.39-40.49.21-14.79-14.79-34.67-7.94-44.14-3.31l-.42-.55c-.95.7-23.35,17.35-40.52.22-15.34-15.37-36.16-7.43-45.11-2.81v-8H0v33.58h130.62v-20.24c6.15-3.62,26.97-14.03,41.8.82,6.79,6.76,14.28,9.02,21.21,9.02,8.01,0,15.28-2.95,20-5.45l.24.4c1.07-.73,26.36-17.53,43.59-.3,6.79,6.79,14.28,9.04,21.21,9.04,13.36,0,24.75-8.28,25.42-8.77,1.46-.97,26.45-17.35,43.56-.27,6.79,6.79,14.28,9.04,21.21,9.04,3.84,0,7.47-.7,10.75-1.7h1.16l-.06-.3c7.92-2.56,13.51-6.73,13.64-6.82Z" stroke="#1E3A8A" fill="#1E3A8A"/>
</svg>
